# xmcd
#
# Track frame offsets:
#	150
#	25275
#	45900
#	71390
#	89537
#	108975
#	128427
#	147887
#	163425
#	186050
#	218215
#	242737
#
# Disc length: 3671 seconds
#
# Revision: 14
# Processed by: cddbd v1.5.2PL0 Copyright (c) Steve Scherf et al.
# Submitted via: audiograbber 1.83.01
#
DISCID=a20e550c
DTITLE=Richie Sambora - Undiscovered Soul
DYEAR=1998
DGENRE=Rock
TTITLE0=Made In America
TTITLE1=Hard Times Come Easy
TTITLE2=Fallen From Graceland
TTITLE3=If God Was A Woman
TTITLE4=All That Really Matters
TTITLE5=You're Not Alone
TTITLE6=In It For Love
TTITLE7=Chained
TTITLE8=Harlem Rain
TTITLE9=Who I Am
TTITLE10=Downside Of Love
TTITLE11=Undiscovered Soul
EXTD=
EXTT0=
EXTT1=
EXTT2=
EXTT3=
EXTT4=
EXTT5=
EXTT6=
EXTT7=
EXTT8=
EXTT9=
EXTT10=
EXTT11=
PLAYORDER=
